<svg width="50" height="50" viewBox="0 0 50 50" fill="none" xmlns="http://www.w3.org/2000/svg">
<path d="M18.0527 11.6223L10.4807 19.1942C9.93836 19.7366 9.93836 20.616 10.4808 21.1584L11.0405 21.7182C11.5829 22.2606 12.4623 22.2606 13.0047 21.7182L20.5767 14.1463C21.1191 13.6039 21.1191 12.7245 20.5767 12.1821L20.0169 11.6223C19.4745 11.0799 18.5951 11.0799 18.0527 11.6223Z" fill="#ffffff"/>
<path d="M32.4306 23.3333L33.3056 22.4583C34.6111 21.1598 35.3475 19.3958 35.3527 17.5544C35.3579 15.713 34.6315 13.9449 33.3333 12.6389L25.9861 5.33335C24.6838 4.03147 22.9178 3.30011 21.0764 3.30011C19.235 3.30011 17.4689 4.03147 16.1667 5.33335L4.29166 17.2083C2.98978 18.5106 2.25842 20.2767 2.25842 22.1181C2.25842 23.9595 2.98978 25.7255 4.29166 27.0278L11.5972 34.3333C12.8995 35.6352 14.6655 36.3666 16.5069 36.3666C18.3484 36.3666 20.1144 35.6352 21.4167 34.3333L21.9722 33.7778L25 36.7778H29.7778V40.9445H34.9028V43.2083L38.8889 47.2222H47.2222V38.125L32.4306 23.3333ZM44.4444 44.4445H40.0833L37.625 42V38.1111H32.5139V33.9445H26.1111L21.9444 29.7778L19.4444 32.375C18.6632 33.1553 17.6042 33.5936 16.5 33.5936C15.3958 33.5936 14.3368 33.1553 13.5556 32.375L6.25 25C5.46972 24.2188 5.03144 23.1597 5.03144 22.0556C5.03144 20.9514 5.46972 19.8924 6.25 19.1111L18.1389 7.22224C18.9201 6.44196 19.9792 6.00368 21.0833 6.00368C22.1875 6.00368 23.2465 6.44196 24.0278 7.22224L31.3333 14.5278C32.1136 15.309 32.5519 16.3681 32.5519 17.4722C32.5519 18.5764 32.1136 19.6354 31.3333 20.4167L28.5556 23.1945L44.4444 39.2778V44.4445Z" fill="#ffffff"/>
</svg>
