<svg width="50" height="50" viewBox="0 0 50 50" fill="none" xmlns="http://www.w3.org/2000/svg">
<path d="M27.0833 10C18.75 10 18.75 40 27.0833 40C35.4166 40 45.8333 34.375 45.8333 25C45.8333 15.625 35.4166 10 27.0833 10ZM27.2916 35.8333C26.4583 35 25 31.25 25 25C25 18.75 26.4583 15 27.2916 14.1667C33.3333 14.375 41.6666 18.125 41.6666 25C41.6666 31.875 33.125 35.625 27.2916 35.8333ZM16.6666 21.875C16.6666 22.9167 16.4583 23.9583 16.4583 25V26.25L4.99998 29.1667L3.95831 25.2083L16.6666 21.875ZM4.16665 14.5833L19.5833 10.625C19.1666 11.25 18.75 12.0833 18.5416 13.125C18.3333 13.75 18.125 14.5833 17.9166 15.4167L5.20831 18.5417L4.16665 14.5833ZM17.0833 32.2917C17.2916 33.75 17.7083 35.2083 18.125 36.25L4.99998 39.5833L3.95831 35.625L17.0833 32.2917Z" fill="#ffffff"/>
</svg>
