<svg width="50" height="50" viewBox="0 0 50 50" fill="none" xmlns="http://www.w3.org/2000/svg">
<path d="M47.6562 21.875C47.0346 21.875 46.4385 22.1219 45.999 22.5615C45.5594 23.001 45.3125 23.5971 45.3125 24.2188V27.3438H42.1875V25.7812C42.1875 24.7452 41.7759 23.7517 41.0434 23.0191C40.3108 22.2866 39.3173 21.875 38.2812 21.875H36.1328L29.459 15.207C29.0972 14.8431 28.6669 14.5545 28.1928 14.358C27.7188 14.1616 27.2104 14.0611 26.6973 14.0625H24.2188V10.9375H27.3438C27.9654 10.9375 28.5615 10.6906 29.001 10.251C29.4406 9.81149 29.6875 9.21535 29.6875 8.59375C29.6875 7.97215 29.4406 7.37601 29.001 6.93647C28.5615 6.49693 27.9654 6.25 27.3438 6.25H16.4062C15.7846 6.25 15.1885 6.49693 14.749 6.93647C14.3094 7.37601 14.0625 7.97215 14.0625 8.59375C14.0625 9.21535 14.3094 9.81149 14.749 10.251C15.1885 10.6906 15.7846 10.9375 16.4062 10.9375H19.5312V14.0625H11.7188C10.6827 14.0625 9.68918 14.4741 8.95661 15.2066C8.22405 15.9392 7.8125 16.9327 7.8125 17.9688V27.3438H4.6875V24.2188C4.6875 23.5971 4.44057 23.001 4.00103 22.5615C3.56149 22.1219 2.96535 21.875 2.34375 21.875C1.72215 21.875 1.12601 22.1219 0.686468 22.5615C0.24693 23.001 0 23.5971 0 24.2188L0 35.1562C0 35.7779 0.24693 36.374 0.686468 36.8135C1.12601 37.2531 1.72215 37.5 2.34375 37.5C2.96535 37.5 3.56149 37.2531 4.00103 36.8135C4.44057 36.374 4.6875 35.7779 4.6875 35.1562V32.0312H7.8125V34.5098C7.81111 35.0229 7.91156 35.5313 8.10802 36.0053C8.30448 36.4794 8.59306 36.9097 8.95703 37.2715L15.8535 44.168C16.2153 44.5319 16.6456 44.8205 17.1197 45.017C17.5937 45.2134 18.1021 45.3139 18.6152 45.3125H26.6973C27.2104 45.3139 27.7188 45.2134 28.1928 45.017C28.6669 44.8205 29.0972 44.5319 29.459 44.168L36.1328 37.5H38.2812C38.7942 37.5 39.3022 37.399 39.7761 37.2027C40.25 37.0063 40.6807 36.7186 41.0434 36.3559C41.4061 35.9932 41.6938 35.5625 41.8902 35.0886C42.0865 34.6147 42.1875 34.1067 42.1875 33.5938V32.0312H45.3125V35.1562C45.3125 35.7779 45.5594 36.374 45.999 36.8135C46.4385 37.2531 47.0346 37.5 47.6562 37.5C48.2779 37.5 48.874 37.2531 49.3135 36.8135C49.7531 36.374 50 35.7779 50 35.1562V24.2188C50 23.5971 49.7531 23.001 49.3135 22.5615C48.874 22.1219 48.2779 21.875 47.6562 21.875ZM37.5 32.8125H35.8027C35.2896 32.8111 34.7812 32.9116 34.3072 33.108C33.8331 33.3045 33.4028 33.5931 33.041 33.957L26.3672 40.625H18.9453L12.5 34.1797V18.75H26.3672L33.0352 25.418C33.3976 25.7826 33.8289 26.0716 34.304 26.2681C34.7791 26.4646 35.2886 26.5647 35.8027 26.5625H37.5V32.8125Z" fill="#fff"/>
</svg>
