<svg width="50" height="50" viewBox="0 0 50 50" fill="none" xmlns="http://www.w3.org/2000/svg">
<path d="M12.5 45.8334C11.3541 45.8334 10.3729 45.425 9.55623 44.6084C8.73957 43.7917 8.33193 42.8112 8.33332 41.6667V20.8334C8.33332 19.6875 8.74165 18.7063 9.55832 17.8896C10.375 17.073 11.3555 16.6653 12.5 16.6667H31.25V12.5C31.25 10.7639 30.6423 9.28824 29.4271 8.07296C28.2118 6.85768 26.7361 6.25004 25 6.25004C23.5764 6.25004 22.3173 6.67574 21.2229 7.52713C20.1285 8.37851 19.3917 9.44588 19.0125 10.7292C18.8389 11.25 18.5694 11.6757 18.2041 12.0063C17.8389 12.3368 17.4139 12.5014 16.9292 12.5C16.2347 12.5 15.6791 12.2653 15.2625 11.7959C14.8458 11.3264 14.7069 10.7973 14.8458 10.2084C15.3653 7.88199 16.5625 5.94588 18.4375 4.40004C20.3125 2.85421 22.5 2.08199 25 2.08338C27.8819 2.08338 30.3389 3.09935 32.3708 5.13129C34.4028 7.16324 35.418 9.61949 35.4166 12.5V16.6667H37.5C38.6458 16.6667 39.6271 17.075 40.4437 17.8917C41.2604 18.7084 41.668 19.6889 41.6666 20.8334V41.6667C41.6666 42.8125 41.2583 43.7938 40.4417 44.6105C39.625 45.4271 38.6444 45.8348 37.5 45.8334H12.5ZM12.5 41.6667H37.5V20.8334H12.5V41.6667ZM25 35.4167C26.1458 35.4167 27.1271 35.0084 27.9437 34.1917C28.7604 33.375 29.168 32.3945 29.1666 31.25C29.1666 30.1042 28.7583 29.123 27.9416 28.3063C27.125 27.4896 26.1444 27.082 25 27.0834C23.8541 27.0834 22.8729 27.4917 22.0562 28.3084C21.2396 29.125 20.8319 30.1056 20.8333 31.25C20.8333 32.3959 21.2417 33.3771 22.0583 34.1938C22.875 35.0105 23.8555 35.4181 25 35.4167Z" fill="#fff"/>
</svg>
